<?xml version="1.0" encoding="UTF-8"?> <svg xmlns="http://www.w3.org/2000/svg" xmlns:xlink="http://www.w3.org/1999/xlink" xmlns:svgjs="http://svgjs.com/svgjs" width="512" height="512" x="0" y="0" viewBox="0 0 512.0005 512.0005" style="enable-background:new 0 0 512 512" xml:space="preserve" class=""> <g> <path xmlns="http://www.w3.org/2000/svg" d="m446.917969 171.148438-169.703125 169.703124 84.851562 84.855469 136.773438-137.886719c17.546875-17.546874 17.546875-46.09375 0-63.640624zm0 0" fill="#1b890b" data-original="#000000" style="" class=""></path> <path xmlns="http://www.w3.org/2000/svg" d="m192.359375 256 63.636719-63.640625 63.640625 63.640625-63.640625 63.636719zm0 0" fill="#1b890b" data-original="#000000" style="" class=""></path> <path xmlns="http://www.w3.org/2000/svg" d="m86.292969 362.066406 137.886719 136.773438c17.546874 17.546875 46.09375 17.546875 63.640624 0l53.03125-51.921875-169.703124-169.703125zm0 0" fill="#1b890b" data-original="#000000" style="" class=""></path> <path xmlns="http://www.w3.org/2000/svg" d="m65.082031 340.851562 169.707031-169.703124-84.855468-84.855469-136.773438 137.886719c-17.546875 17.546874-17.546875 46.09375 0 63.640624zm0 0" fill="#1b890b" data-original="#000000" style="" class=""></path> <path xmlns="http://www.w3.org/2000/svg" d="m425.707031 149.933594-137.886719-136.773438c-17.546874-17.546875-46.09375-17.546875-63.640624 0l-53.03125 51.921875 169.703124 169.707031zm0 0" fill="#1b890b" data-original="#000000" style="" class=""></path> </g> </svg> 