<?xml version="1.0" encoding="UTF-8"?> <svg xmlns="http://www.w3.org/2000/svg" xmlns:xlink="http://www.w3.org/1999/xlink" xmlns:svgjs="http://svgjs.com/svgjs" width="512" height="512" x="0" y="0" viewBox="0 0 512 512" style="enable-background:new 0 0 512 512" xml:space="preserve" class=""> <g> <g xmlns="http://www.w3.org/2000/svg"> <path d="m324 248v-16.784c0-2.072-2.764-2.777-3.756-.958l-21.154 38.784c-.727 1.333.238 2.958 1.756 2.958h23.154c4.418 0 8 3.582 8 8v16.784c0 2.072 2.764 2.777 3.756.958l21.154-38.784c.727-1.333-.238-2.958-1.756-2.958h-23.154c-4.418 0-8-3.582-8-8z" fill="#1b890b" data-original="#000000" style=""></path> <path d="m224 168c-1.589 0-3.158-.094-4.699-.275-1.764-.207-3.301 1.206-3.301 2.982v84.061c0 61.806 49.549 112.879 111.354 113.23 62.055.352 112.646-50.023 112.646-111.998v-85.243c0-1.732-1.464-3.116-3.192-2.994-6.469.456-34.504.237-212.808.237zm155.023 83.831-48 88c-3.95 7.241-15.023 4.435-15.023-3.831v-45c0-1.657-1.343-3-3-3h-29c-6.061 0-9.93-6.502-7.023-11.831l48-88c3.957-7.254 15.023-4.424 15.023 3.831v45c0 1.657 1.343 3 3 3h29c6.061 0 9.93 6.502 7.023 11.831z" fill="#1b890b" data-original="#000000" style=""></path> <path d="m280 85v-56.405c0-15.237-11.924-28.132-27.154-28.583-15.825-.468-28.846 12.267-28.846 27.988v57.023c0 1.673 1.366 3.025 3.038 3 3.811-.057 14.279-.025 49.954-.023 1.658 0 3.008-1.343 3.008-3z" fill="#1b890b" data-original="#000000" style=""></path> <path d="m432 85.024v-56.429c0-15.236-11.924-28.132-27.154-28.583-15.825-.468-28.846 12.267-28.846 27.988v57c0 1.657 1.35 3 3.007 3 35.685-.002 46.12-.036 49.945.023 1.676.026 3.048-1.323 3.048-2.999z" fill="#1b890b" data-original="#000000" style=""></path> <path d="m312 432c-1.604 0-3.188-.079-4.748-.234-1.748-.173-3.252 1.232-3.252 2.988v7.246c0 12.15-9.85 22-22 22h-140c-12.15 0-22-9.85-22-22v-50.868c0-2.084-2.083-3.559-4.03-2.814-12.807 4.903-27.071 4.917-39.904.014-1.963-.75-4.066.695-4.066 2.797v52.871c0 37.555 30.445 68 68 68h144c37.555 0 68-30.445 68-68v-9.235c0-1.764-1.508-3.146-3.265-2.986-3.901.355-10.115.221-36.735.221z" fill="#1b890b" data-original="#000000" style=""></path> <circle cx="96" cy="336" r="40" fill="#1b890b" data-original="#000000" style=""></circle> <path d="m280 379.024v4.976c0 17.673 14.327 32 32 32h32c17.673 0 32-14.327 32-32v-4.976c0-2.082-2.068-3.527-4.023-2.811-28.221 10.349-59.533 10.424-87.954 0-1.955-.716-4.023.729-4.023 2.811z" fill="#1b890b" data-original="#000000" style=""></path> <path d="m432 104h-208c-13.234 0-24 10.766-24 24s10.766 24 24 24h208c13.234 0 24-10.766 24-24s-10.766-24-24-24z" fill="#1b890b" data-original="#000000" style=""></path> </g> </g> </svg> 