<?xml version="1.0" encoding="UTF-8"?> <svg xmlns="http://www.w3.org/2000/svg" xmlns:xlink="http://www.w3.org/1999/xlink" xmlns:svgjs="http://svgjs.com/svgjs" width="512" height="512" x="0" y="0" viewBox="0 0 511.989 511.989" style="enable-background:new 0 0 512 512" xml:space="preserve" class=""> <g> <g xmlns="http://www.w3.org/2000/svg"> <g> <path d="M181.178,71.178c-8.768-17.728-15.68-31.723-0.427-54.613c3.264-4.907,1.92-11.52-2.965-14.784 c-4.843-3.243-11.499-1.941-14.784,2.965c-22.101,33.109-10.368,56.832-0.939,75.883c8.811,17.835,15.189,30.72,0.939,52.117 c-3.285,4.907-1.941,11.52,2.944,14.784c1.813,1.216,3.883,1.792,5.931,1.792c3.435,0,6.805-1.664,8.853-4.757 C201.829,112.949,190.394,89.781,181.178,71.178z" fill="#1b890b" data-original="#000000" style=""></path> </g> </g> <g xmlns="http://www.w3.org/2000/svg"> <g> <path d="M266.17,71.178c-8.789-17.728-15.701-31.723-0.448-54.613c3.264-4.907,1.92-11.52-2.965-14.784 c-4.843-3.243-11.52-1.941-14.784,2.965c-22.08,33.131-10.347,56.853-0.939,75.904c8.811,17.835,15.189,30.72,0.939,52.096 c-3.264,4.907-1.92,11.52,2.965,14.784c1.813,1.216,3.861,1.792,5.909,1.792c3.435,0,6.805-1.664,8.875-4.757 C286.821,112.949,275.386,89.781,266.17,71.178z" fill="#1b890b" data-original="#000000" style=""></path> </g> </g> <g xmlns="http://www.w3.org/2000/svg"> <g> <path d="M351.141,71.178c-8.789-17.728-15.701-31.723-0.448-54.613c3.264-4.907,1.92-11.52-2.965-14.784 c-4.843-3.243-11.52-1.941-14.784,2.965c-22.08,33.131-10.347,56.853-0.939,75.904c8.811,17.835,15.189,30.72,0.939,52.096 c-3.264,4.907-1.92,11.52,2.965,14.784c1.813,1.216,3.861,1.792,5.909,1.792c3.456,0,6.827-1.664,8.875-4.757 C371.792,112.949,360.357,89.781,351.141,71.178z" fill="#1b890b" data-original="#000000" style=""></path> </g> </g> <g xmlns="http://www.w3.org/2000/svg"> <g> <path d="M437.328,170.655H74.661c-29.419,0-53.333,23.936-53.333,53.333v192c0,29.397,23.915,53.333,53.333,53.333h362.667 c29.419,0,53.333-23.936,53.333-53.333v-192C490.661,194.591,466.746,170.655,437.328,170.655z M106.661,415.989 c0,5.888-4.779,10.667-10.667,10.667s-10.667-4.779-10.667-10.667v-192c0-5.888,4.779-10.667,10.667-10.667 s10.667,4.779,10.667,10.667V415.989z M170.661,415.989c0,5.888-4.779,10.667-10.667,10.667s-10.667-4.779-10.667-10.667v-192 c0-5.888,4.779-10.667,10.667-10.667s10.667,4.779,10.667,10.667V415.989z M234.661,415.989c0,5.888-4.779,10.667-10.667,10.667 s-10.667-4.779-10.667-10.667v-192c0-5.888,4.779-10.667,10.667-10.667s10.667,4.779,10.667,10.667V415.989z M298.661,415.989 c0,5.888-4.779,10.667-10.667,10.667s-10.667-4.779-10.667-10.667v-192c0-5.888,4.779-10.667,10.667-10.667 s10.667,4.779,10.667,10.667V415.989z M362.661,415.989c0,5.888-4.779,10.667-10.667,10.667c-5.888,0-10.667-4.779-10.667-10.667 v-192c0-5.888,4.779-10.667,10.667-10.667c5.888,0,10.667,4.779,10.667,10.667V415.989z M426.661,415.989 c0,5.888-4.779,10.667-10.667,10.667c-5.888,0-10.667-4.779-10.667-10.667v-192c0-5.888,4.779-10.667,10.667-10.667 c5.888,0,10.667,4.779,10.667,10.667V415.989z" fill="#1b890b" data-original="#000000" style=""></path> </g> </g> <g xmlns="http://www.w3.org/2000/svg"> <g> <path d="M117.328,447.989c-5.888,0-10.667,4.779-10.667,10.667v42.667c0,5.888,4.779,10.667,10.667,10.667 s10.667-4.779,10.667-10.667v-42.667C127.994,452.767,123.216,447.989,117.328,447.989z" fill="#1b890b" data-original="#000000" style=""></path> </g> </g> <g xmlns="http://www.w3.org/2000/svg"> <g> <path d="M394.661,447.989c-5.888,0-10.667,4.779-10.667,10.667v42.667c0,5.888,4.779,10.667,10.667,10.667 s10.667-4.779,10.667-10.667v-42.667C405.328,452.767,400.549,447.989,394.661,447.989z" fill="#1b890b" data-original="#000000" style=""></path> </g> </g> <g xmlns="http://www.w3.org/2000/svg"> </g> <g xmlns="http://www.w3.org/2000/svg"> </g> <g xmlns="http://www.w3.org/2000/svg"> </g> <g xmlns="http://www.w3.org/2000/svg"> </g> <g xmlns="http://www.w3.org/2000/svg"> </g> <g xmlns="http://www.w3.org/2000/svg"> </g> <g xmlns="http://www.w3.org/2000/svg"> </g> <g xmlns="http://www.w3.org/2000/svg"> </g> <g xmlns="http://www.w3.org/2000/svg"> </g> <g xmlns="http://www.w3.org/2000/svg"> </g> <g xmlns="http://www.w3.org/2000/svg"> </g> <g xmlns="http://www.w3.org/2000/svg"> </g> <g xmlns="http://www.w3.org/2000/svg"> </g> <g xmlns="http://www.w3.org/2000/svg"> </g> <g xmlns="http://www.w3.org/2000/svg"> </g> </g> </svg> 