<?xml version="1.0" encoding="UTF-8"?> <svg xmlns="http://www.w3.org/2000/svg" xmlns:xlink="http://www.w3.org/1999/xlink" xmlns:svgjs="http://svgjs.com/svgjs" width="512" height="512" x="0" y="0" viewBox="0 0 479.983 479.983" style="enable-background:new 0 0 512 512" xml:space="preserve"> <g> <g xmlns="http://www.w3.org/2000/svg"> <path d="m109.824 405.202c3.866 2.964 4.31 8.612.866 12.056l-31.217 31.217c-10.93 10.94-25 20.19-44.26 29.13-20.786 9.684-42.51-12.009-32.84-32.84 8.94-19.26 18.19-33.32 29.13-44.26l31.217-31.217c3.445-3.445 9.093-3 12.056.866 1.076 1.404 2.253 2.747 3.527 4.021 29.378 29.379 28.568 28.764 31.521 31.027z" fill="#1b890b" data-original="#000000" style=""></path> <path d="m169.151 360.581c3.3 3.093 3.39 8.298.192 11.497l-18.28 18.287c-9.349 9.328-24.5 9.429-33.95 0l-27.5-27.5c-9.438-9.458-9.319-24.611 0-33.95l18.246-18.238c3.2-3.199 8.412-3.116 11.497.193 11.576 12.414 37.572 38.254 49.795 49.711z" fill="#1b890b" data-original="#000000" style=""></path> <path d="m254.509 55.272-40.841 33.727c-3.18 2.626-7.841 2.41-10.757-.506l-31.037-31.037c-11.62-11.63-11.62-30.54 0-42.17l6.44-6.44c11.63-11.62 30.54-11.62 42.16 0l34.6 34.6c3.335 3.335 3.071 8.821-.565 11.826z" fill="#1b890b" data-original="#000000" style=""></path> <path d="m471.133 301.666-6.44 6.44c-11.585 11.585-30.504 11.646-42.17 0l-31.037-31.037c-2.916-2.916-3.133-7.577-.507-10.757l33.726-40.841c3.005-3.636 8.492-3.901 11.827-.565l34.6 34.6c11.621 11.62 11.621 30.53.001 42.16z" fill="#1b890b" data-original="#000000" style=""></path> <path d="m298.319 161.869c-3.127-3.127-8.186-3.127-11.314 0l-73.777 73.777c-3.12 3.121-3.133 8.18 0 11.314l19.791 19.791c3.121 3.12 8.18 3.133 11.314 0l73.777-73.777c3.126-3.127 3.127-8.187 0-11.313z" fill="#1b890b" data-original="#000000" style=""></path> <path d="m386.09 177.81c-10.864-10.863-13.373-27.306-6.245-40.916 5.557-10.609 3.601-23.426-4.867-31.895-8.469-8.468-21.286-10.425-31.895-4.867-13.609 7.127-30.053 4.619-40.916-6.245l-26.196-26.196c-2.916-2.916-7.571-3.138-10.751-.511-93.064 76.86-97.788 80.745-97.888 80.845-5.66 4.86-9.27 11.61-10.17 19.01l-8.33 68.32-19.43 23.42c-10.54 11.79-10.05 29.74 1.15 40.94l49.71 49.71c11.204 11.205 29.155 11.687 40.94 1.15l23.42-19.43 68.32-8.33c7.4-.9 14.15-4.51 19.01-10.17.1-.1 3.985-4.824 80.845-97.888 2.626-3.18 2.405-7.835-.511-10.751zm-56.667 26.477-73.777 73.777c-9.358 9.358-24.583 9.358-33.941 0l-19.791-19.791c-9.38-9.379-9.381-24.561 0-33.941l73.777-73.777c9.38-9.38 24.561-9.381 33.941 0l19.79 19.791c9.381 9.378 9.382 24.56.001 33.941z" fill="#1b890b" data-original="#000000" style=""></path> <path d="m471.293 101.556-92.87-92.87c-10.94-10.94-28.69-11.63-40.45-1.59l-47.967 39.615c-3.638 3.005-3.899 8.489-.563 11.825l24.039 24.039c5.89 5.888 14.803 7.249 22.178 3.384 16.841-8.822 37.188-5.717 50.632 7.727 13.443 13.443 16.548 33.791 7.727 50.632-3.864 7.377-2.503 16.29 3.385 22.178l24.039 24.039c3.336 3.336 8.821 3.075 11.825-.563l39.615-47.967c10.04-11.759 9.35-29.509-1.59-40.449z" fill="#1b890b" data-original="#000000" style=""></path> </g> </g> </svg> 