<?xml version="1.0" encoding="UTF-8"?> <svg xmlns="http://www.w3.org/2000/svg" xmlns:xlink="http://www.w3.org/1999/xlink" xmlns:svgjs="http://svgjs.com/svgjs" width="512" height="512" x="0" y="0" viewBox="0 0 297.003 297.003" style="enable-background:new 0 0 512 512" xml:space="preserve" class=""> <g> <g xmlns="http://www.w3.org/2000/svg"> <path d="M135.985,206.429c46.318,0,112.033-49.211,158.087-95.266c3.907-3.907,3.907-10.242,0-14.149L199.988,2.93 c-1.954-1.952-4.514-2.929-7.075-2.929c-2.56,0-5.12,0.976-7.074,2.929c-34.288,34.287-62.293,70.884-78.857,103.05 c-25.804,50.112-16.367,75.484-3.907,87.944C111.373,202.222,122.447,206.429,135.985,206.429z" fill="#1b890b" data-original="#000000" style=""></path> <path d="M93.172,203.828c-8.032-8.032-13.279-18.308-15.441-30.067l-49.574,32.7c-9.22,6.081-18.939,18.522-22.607,28.941 l-3.789,10.761c-4.223,11.994-0.627,27.821,8.365,36.813l3.898,3.898c6.453,6.453,16.425,10.126,25.975,10.126 c3.758,0,7.451-0.569,10.839-1.761l10.763-3.789c10.418-3.669,22.86-13.387,28.94-22.606l32.684-49.551 C111.475,217.127,101.236,211.892,93.172,203.828z M56.919,254.235c-1.86,1.861-4.441,2.921-7.072,2.921 c-2.632,0-5.213-1.06-7.073-2.921c-1.861-1.871-2.931-4.442-2.931-7.073c0-2.641,1.07-5.212,2.931-7.083 c1.86-1.86,4.441-2.931,7.073-2.931c2.631,0,5.212,1.071,7.072,2.931c1.861,1.861,2.932,4.442,2.932,7.083 C59.851,249.793,58.78,252.364,56.919,254.235z" fill="#1b890b" data-original="#000000" style=""></path> </g> <g xmlns="http://www.w3.org/2000/svg"> </g> <g xmlns="http://www.w3.org/2000/svg"> </g> <g xmlns="http://www.w3.org/2000/svg"> </g> <g xmlns="http://www.w3.org/2000/svg"> </g> <g xmlns="http://www.w3.org/2000/svg"> </g> <g xmlns="http://www.w3.org/2000/svg"> </g> <g xmlns="http://www.w3.org/2000/svg"> </g> <g xmlns="http://www.w3.org/2000/svg"> </g> <g xmlns="http://www.w3.org/2000/svg"> </g> <g xmlns="http://www.w3.org/2000/svg"> </g> <g xmlns="http://www.w3.org/2000/svg"> </g> <g xmlns="http://www.w3.org/2000/svg"> </g> <g xmlns="http://www.w3.org/2000/svg"> </g> <g xmlns="http://www.w3.org/2000/svg"> </g> <g xmlns="http://www.w3.org/2000/svg"> </g> </g> </svg> 